<?xml version="1.0" encoding="UTF-8"?>
<svg width="32px" height="32px" viewBox="0 0 32 32" version="1.1" xmlns="http://www.w3.org/2000/svg" xmlns:xlink="http://www.w3.org/1999/xlink">
    <g id="页面-1" stroke="none" stroke-width="1" fill="none" fill-rule="evenodd" opacity="0.600000024">
        <g id="模型库-总览（新增专区入口）" transform="translate(-1612.000000, -116.000000)">
            <g id="生成式AI" transform="translate(1332.000000, 96.000000)">
                <g id="生成式AI-icon" transform="translate(280.000000, 20.000000)">
                    <rect id="矩形" x="0" y="0" width="32" height="32"></rect>
                    <path d="M15.4683544,20.1694439 C15.8318836,20.1694439 16.1314988,20.4475857 16.1724462,20.805918 L16.1772152,20.8899434 L16.1772152,29.0699632 C16.1772152,29.4678841 15.8598474,29.7904628 15.4683544,29.7904628 C15.1048253,29.7904628 14.8052101,29.512321 14.7642627,29.1539887 L14.7594937,29.0699632 L14.7594937,20.8899434 C14.7594937,20.4920226 15.0768615,20.1694439 15.4683544,20.1694439 Z M16.405126,0.133933257 L16.516632,0.192591201 L28.1386768,7.18479777 C28.2670004,7.23728818 28.3815743,7.32841386 28.4638916,7.45437938 C28.665028,7.76216749 28.6028549,8.16973421 28.3318451,8.40266408 L28.2656221,8.45319213 L21.5314449,12.9996071 C21.2053352,13.219772 20.7653751,13.1295463 20.5487667,12.7980822 C20.3476302,12.4902941 20.4098034,12.0827274 20.6808131,11.8497975 L20.7470361,11.7992694 L26.5315443,7.89307268 L15.8121519,1.44326114 L4.21377215,8.03501109 L11.406756,12.1526751 C11.7478727,12.3479391 11.8686668,12.7873019 11.6765571,13.1340194 C11.4981695,13.4559714 11.1127089,13.5848321 10.785436,13.4452589 L10.7110652,13.4082504 L3.41772152,9.23320186 L3.41772152,22.5301217 L15.4683544,29.5557129 L27.5189873,22.5301217 L27.5191113,17.5738445 C26.8931548,17.2959202 26.4556962,16.661096 26.4556962,15.9224203 C26.4556962,14.927618 27.2491156,14.1211714 28.2278481,14.1211714 C29.2065806,14.1211714 30,14.927618 30,15.9224203 C30,16.6608158 29.5628733,17.2954385 28.9372972,17.5735281 L28.9367089,22.5483965 C28.9367089,23.0152428 28.7093621,23.448776 28.33461,23.7107965 L28.2378973,23.7726484 L16.1636778,30.8117855 C15.7690907,31.0418255 15.2910886,31.0609954 14.882599,30.8692955 L14.7730311,30.8117855 L2.69881154,23.7726484 C2.30004704,23.5401731 2.04202611,23.1246684 2.00469013,22.6643341 L2,22.5483965 L2,8.4701225 C2,8.00327619 2.22734675,7.56974295 2.60738649,7.30467866 L2.70553433,7.24200053 L15.1175496,0.187594515 C15.5121367,-0.0424454096 15.9901388,-0.0616154027 16.405126,0.133933257 Z" id="group1" fill="#C00016" fill-rule="nonzero"></path>
                    <path d="M12.1953125,19 L12.9335938,17.1219512 L16.1328125,17.1219512 L16.8710938,19 L18.0664062,19 L15.1835938,12 L13.8828125,12 L11,19 L12.1953125,19 Z M15.8515625,16.2682927 L13.2148438,16.2682927 C13.7557091,14.902439 14.0954836,14.0484437 14.2341669,13.7063069 L14.2697393,13.6190215 C14.2795858,13.595045 14.2874215,13.576187 14.2932461,13.5624477 L14.3046875,13.5365854 L14.3046875,13.5365854 L14.515625,12.9219512 L14.5507812,12.9219512 C14.5507812,12.9674797 14.609375,13.1268293 14.7265625,13.4 C14.75,13.4682927 14.7617188,13.5138211 14.7617188,13.5365854 L14.7617188,13.5365854 L14.7731601,13.5624477 C14.7789848,13.576187 14.7868204,13.595045 14.7966669,13.6190215 L14.8322393,13.7063069 C14.9709227,14.0484437 15.3106971,14.902439 15.8515625,16.2682927 L15.8515625,16.2682927 Z M20,19 L20,12 L18.9101562,12 L18.9101562,19 L20,19 Z" id="group2" fill="#C00016" fill-rule="nonzero"></path>
                </g>
            </g>
        </g>
    </g>
</svg>